# Blender 3.6.2
# www.blender.org
mtllib Sphere1.mtl
o Sphere
v 0.000000 3.535534 -3.535534
v 0.000000 1.913417 -4.619398
v 0.000000 0.000000 -5.000000
v 0.000000 -1.913417 -4.619398
v 0.000000 -4.619398 -1.913417
v 0.732233 4.619398 -1.767767
v 1.352990 3.535534 -3.266407
v 1.767767 1.913417 -4.267767
v 1.913417 0.000000 -4.619398
v 1.767767 -1.913417 -4.267767
v 1.352990 -3.535534 -3.266407
v 0.732233 -4.619398 -1.767767
v 1.352990 4.619398 -1.352990
v 2.500000 3.535534 -2.500000
v 3.266407 1.913417 -3.266407
v 3.535534 0.000000 -3.535534
v 3.266407 -1.913417 -3.266407
v 2.500000 -3.535534 -2.500000
v 1.352990 -4.619398 -1.352990
v 1.767767 4.619398 -0.732233
v 3.266407 3.535534 -1.352990
v 4.267767 1.913417 -1.767766
v 4.619398 0.000000 -1.913417
v 4.267767 -1.913417 -1.767766
v 3.266407 -3.535534 -1.352990
v 1.767767 -4.619398 -0.732233
v 1.913417 4.619398 0.000000
v 3.535534 3.535534 0.000000
v 4.619397 1.913417 0.000001
v 5.000000 0.000000 0.000001
v 4.619397 -1.913417 0.000001
v 3.535534 -3.535534 0.000000
v 1.913417 -4.619398 0.000000
v 1.767767 4.619398 0.732233
v 3.266407 3.535534 1.352991
v 4.267766 1.913417 1.767768
v 4.619398 0.000000 1.913418
v 4.267766 -1.913417 1.767768
v 3.266407 -3.535534 1.352991
v 1.767767 -4.619398 0.732233
v 1.352990 4.619398 1.352991
v 2.499999 3.535534 2.500000
v 3.266406 1.913417 3.266407
v 3.535534 0.000000 3.535535
v 3.266406 -1.913417 3.266407
v 2.499999 -3.535534 2.500000
v 1.352990 -4.619398 1.352991
v 0.732233 4.619398 1.767767
v 1.352989 3.535534 3.266408
v 1.767766 1.913417 4.267766
v 1.913417 0.000000 4.619399
v 1.767766 -1.913417 4.267766
v 1.352989 -3.535534 3.266408
v 0.732233 -4.619398 1.767767
v -0.000001 4.619398 1.913417
v -0.000001 3.535534 3.535534
v -0.000001 1.913417 4.619397
v -0.000001 0.000000 5.000001
v -0.000001 -1.913417 4.619397
v -0.000001 -3.535534 3.535534
v -0.000001 -4.619398 1.913417
v 0.000000 -5.000000 0.000000
v 0.000000 5.000000 0.000000
v -0.732234 4.619398 1.767767
v -1.352991 3.535534 3.266407
v -1.767768 1.913417 4.267766
v -1.913419 0.000000 4.619398
v -1.767768 -1.913417 4.267766
v -1.352991 -3.535534 3.266407
v -0.732234 -4.619398 1.767767
v -1.352991 4.619398 1.352990
v -2.500001 3.535534 2.499999
v -3.266408 1.913417 3.266406
v -3.535536 0.000000 3.535534
v -3.266408 -1.913417 3.266406
v -2.500001 -3.535534 2.499999
v -1.352991 -4.619398 1.352990
v -1.767767 4.619398 0.732232
v -3.266408 3.535534 1.352989
v -4.267766 1.913417 1.767765
v -4.619399 0.000000 1.913416
v -4.267766 -1.913417 1.767765
v -3.266408 -3.535534 1.352989
v -1.767767 -4.619398 0.732232
v -1.913417 4.619398 -0.000001
v -3.535533 3.535534 -0.000002
v -4.619397 1.913417 -0.000002
v -5.000000 0.000000 -0.000002
v -4.619397 -1.913417 -0.000002
v -3.535533 -3.535534 -0.000002
v -1.913417 -4.619398 -0.000001
v -1.767766 4.619398 -0.732234
v -3.266406 3.535534 -1.352992
v -4.267766 1.913417 -1.767768
v -4.619398 0.000000 -1.913419
v -4.267766 -1.913417 -1.767768
v -3.266406 -3.535534 -1.352992
v -1.767766 -4.619398 -0.732234
v -1.352989 4.619398 -1.352991
v -2.499998 3.535534 -2.500001
v -3.266405 1.913417 -3.266408
v -3.535533 0.000000 -3.535536
v -3.266405 -1.913417 -3.266408
v -2.499998 -3.535534 -2.500001
v -1.352989 -4.619398 -1.352991
v -0.732232 4.619398 -1.767767
v -1.352988 3.535534 -3.266407
v -1.767765 1.913417 -4.267767
v -1.913415 0.000000 -4.619399
v -1.767765 -1.913417 -4.267767
v -1.352988 -3.535534 -3.266407
v -0.732232 -4.619398 -1.767767
v 0.000001 4.619398 -1.913417
v 0.000003 -3.535534 -3.535533
vn -0.0000 -0.3744 -0.9273
vn -0.0000 -0.0000 -1.0000
vn 0.3827 -0.0000 -0.9239
vn 0.3549 -0.3744 -0.8567
vn -0.0000 0.3744 -0.9273
vn -0.0000 0.6952 -0.7189
vn 0.2751 0.6952 -0.6641
vn 0.3549 0.3744 -0.8567
vn -0.0000 0.9152 -0.4031
vn -0.0000 1.0000 -0.0000
vn 0.1543 0.9152 -0.3724
vn -0.0000 -1.0000 -0.0000
vn -0.0000 -0.9152 -0.4031
vn 0.1543 -0.9152 -0.3724
vn -0.0000 -0.6952 -0.7189
vn 0.2751 -0.6952 -0.6641
vn 0.2850 -0.9152 -0.2850
vn 0.6557 -0.3744 -0.6557
vn 0.5083 -0.6952 -0.5083
vn 0.6557 0.3744 -0.6557
vn 0.7071 -0.0000 -0.7071
vn 0.2850 0.9152 -0.2850
vn 0.5083 0.6952 -0.5083
vn 0.3724 0.9152 -0.1543
vn 0.6641 0.6952 -0.2751
vn 0.6641 -0.6952 -0.2751
vn 0.3724 -0.9152 -0.1543
vn 0.9239 -0.0000 -0.3827
vn 0.8567 -0.3744 -0.3549
vn 0.8567 0.3744 -0.3549
vn 0.7189 -0.6952 -0.0000
vn 0.4031 -0.9152 -0.0000
vn 1.0000 -0.0000 -0.0000
vn 0.9273 -0.3744 -0.0000
vn 0.7189 0.6952 -0.0000
vn 0.9273 0.3744 -0.0000
vn 0.4031 0.9152 -0.0000
vn 0.3724 0.9152 0.1543
vn 0.3724 -0.9152 0.1543
vn 0.8567 -0.3744 0.3549
vn 0.6641 -0.6952 0.2751
vn 0.8567 0.3744 0.3549
vn 0.9239 -0.0000 0.3827
vn 0.6641 0.6952 0.2751
vn 0.6557 -0.3744 0.6557
vn 0.5083 -0.6952 0.5083
vn 0.6557 0.3744 0.6557
vn 0.7071 -0.0000 0.7071
vn 0.2850 0.9152 0.2850
vn 0.5083 0.6952 0.5083
vn 0.2850 -0.9152 0.2850
vn 0.2751 -0.6952 0.6641
vn 0.1543 -0.9152 0.3724
vn 0.3827 -0.0000 0.9239
vn 0.3549 -0.3744 0.8567
vn 0.2751 0.6952 0.6641
vn 0.3549 0.3744 0.8567
vn 0.1543 0.9152 0.3724
vn -0.0000 -0.0000 1.0000
vn -0.0000 -0.3744 0.9273
vn -0.0000 0.6952 0.7189
vn -0.0000 0.3744 0.9273
vn -0.0000 0.9152 0.4031
vn -0.0000 -0.9152 0.4031
vn -0.0000 -0.6952 0.7189
vn -0.1543 -0.9152 0.3724
vn -0.3549 -0.3744 0.8567
vn -0.2751 -0.6952 0.6641
vn -0.3549 0.3744 0.8567
vn -0.3827 -0.0000 0.9239
vn -0.1543 0.9152 0.3724
vn -0.2751 0.6952 0.6641
vn -0.6557 0.3744 0.6557
vn -0.7071 -0.0000 0.7071
vn -0.2850 0.9152 0.2850
vn -0.5083 0.6952 0.5083
vn -0.5083 -0.6952 0.5083
vn -0.2850 -0.9152 0.2850
vn -0.6557 -0.3744 0.6557
vn -0.6641 -0.6952 0.2751
vn -0.3724 -0.9152 0.1543
vn -0.9239 -0.0000 0.3827
vn -0.8567 -0.3744 0.3549
vn -0.6641 0.6952 0.2751
vn -0.8567 0.3744 0.3549
vn -0.3724 0.9152 0.1543
vn -0.7189 0.6952 -0.0000
vn -0.9273 0.3744 -0.0000
vn -0.4031 0.9152 -0.0000
vn -0.4031 -0.9152 -0.0000
vn -0.9273 -0.3744 -0.0000
vn -0.7189 -0.6952 -0.0000
vn -1.0000 -0.0000 -0.0000
vn -0.3724 -0.9152 -0.1543
vn -0.8567 -0.3744 -0.3549
vn -0.6641 -0.6952 -0.2751
vn -0.8567 0.3744 -0.3549
vn -0.9239 -0.0000 -0.3827
vn -0.3724 0.9152 -0.1543
vn -0.6641 0.6952 -0.2751
vn -0.2850 0.9152 -0.2850
vn -0.5083 0.6952 -0.5083
vn -0.5083 -0.6952 -0.5083
vn -0.2850 -0.9152 -0.2850
vn -0.7071 -0.0000 -0.7071
vn -0.6557 -0.3744 -0.6557
vn -0.6557 0.3744 -0.6557
vn -0.2751 -0.6952 -0.6641
vn -0.1543 -0.9152 -0.3724
vn -0.3827 -0.0000 -0.9239
vn -0.3549 -0.3744 -0.8567
vn -0.2751 0.6952 -0.6641
vn -0.3549 0.3744 -0.8567
vn -0.1543 0.9152 -0.3724
vt 0.688035 0.365449
vt 0.641357 0.324043
vt 0.680321 0.274010
vt 0.731892 0.320034
vt 0.592102 0.287430
vt 0.532366 0.251692
vt 0.557548 0.202048
vt 0.624537 0.235629
vt 0.439772 0.204895
vt 0.347984 0.130395
vt 0.461034 0.164963
vt 0.908607 0.592147
vt 0.813460 0.503208
vt 0.853833 0.473982
vt 0.739247 0.418533
vt 0.784387 0.379792
vt 0.941804 0.573738
vt 0.897744 0.448243
vt 0.783416 0.269782
vt 0.836967 0.340968
vt 0.657066 0.175016
vt 0.723428 0.216307
vt 0.476474 0.123051
vt 0.578825 0.146139
vt 0.361256 0.104407
vt 0.480231 0.078294
vt 0.593175 0.079683
vt 0.903024 0.303681
vt 0.946244 0.428138
vt 0.772609 0.146680
vt 0.846661 0.211828
vt 0.689128 0.102356
vt 0.363558 0.091037
vt 0.973563 0.562584
vt 0.989139 0.271497
vt 0.999521 0.417602
vt 0.840483 0.048299
vt 0.931798 0.146093
vt 0.593983 0.000094
vt 0.717899 0.001470
vt 0.358320 0.066701
vt 0.475659 0.031654
vt 0.999906 0.559518
vt 0.000094 0.572474
vt 0.000107 0.430320
vt 0.053490 0.562070
vt 0.642492 0.911490
vt 0.530572 0.951616
vt 0.523696 0.906639
vt 0.412937 0.985301
vt 0.290114 0.984831
vt 0.316798 0.885339
vt 0.413270 0.907310
vt 0.170198 0.940646
vt 0.069771 0.849464
vt 0.157216 0.777485
vt 0.231724 0.843219
vt 0.009414 0.719279
vt 0.096694 0.685150
vt 0.347701 0.811520
vt 0.427124 0.840858
vt 0.220244 0.718265
vt 0.280736 0.771254
vt 0.101482 0.537311
vt 0.162792 0.646276
vt 0.529888 0.861612
vt 0.013982 0.426599
vt 0.642279 0.900007
vt 0.447823 0.784492
vt 0.544122 0.819154
vt 0.323199 0.712571
vt 0.379937 0.750921
vt 0.215729 0.606493
vt 0.270960 0.666924
vt 0.059310 0.408230
vt 0.146878 0.512019
vt 0.645904 0.876891
vt 0.362974 0.661981
vt 0.412657 0.698878
vt 0.261971 0.567210
vt 0.314522 0.620787
vt 0.074486 0.397182
vt 0.184712 0.476418
vt 0.656766 0.849577
vt 0.563797 0.779070
vt 0.472447 0.734598
vt 0.673372 0.820679
vt 0.587449 0.740959
vt 0.444761 0.651659
vt 0.500461 0.689996
vt 0.354586 0.577180
vt 0.398862 0.616041
vt 0.225708 0.445172
vt 0.303694 0.528109
vt 0.125067 0.355645
vt 0.391864 0.536116
vt 0.434291 0.573783
vt 0.263899 0.413177
vt 0.342253 0.489995
vt 0.529250 0.647454
vt 0.613874 0.704310
vt 0.477808 0.608811
vt 0.162742 0.331220
vt 0.694661 0.790411
vt 0.560379 0.607950
vt 0.642689 0.668875
vt 0.468548 0.532474
vt 0.510171 0.567601
vt 0.378394 0.452363
vt 0.427336 0.496140
vt 0.198462 0.304975
vt 0.299750 0.380675
vt 0.719169 0.760499
vt 0.412587 0.414766
vt 0.461552 0.456676
vt 0.232180 0.277640
vt 0.333503 0.347750
vt 0.746864 0.730379
vt 0.673419 0.634249
vt 0.543085 0.527536
vt 0.592810 0.569762
vt 0.502387 0.492258
vt 0.776741 0.699999
vt 0.705681 0.600254
vt 0.577448 0.488494
vt 0.625507 0.531280
vt 0.494867 0.417052
vt 0.536198 0.452350
vt 0.365203 0.314367
vt 0.445079 0.376700
vt 0.263731 0.249754
vt 0.394688 0.280373
vt 0.475912 0.337497
vt 0.661185 0.494102
vt 0.739753 0.566964
vt 0.570188 0.411667
vt 0.612119 0.448622
vt 0.527539 0.376393
vt 0.292756 0.221745
vt 0.808102 0.670998
vt 0.699180 0.456878
vt 0.775665 0.534479
vt 0.604960 0.369300
vt 0.648335 0.407787
vt 0.504888 0.296259
vt 0.559835 0.333657
vt 0.318701 0.194027
vt 0.421557 0.245509
vt 0.841028 0.642830
vt 0.326497 0.178482
vt 0.874768 0.615780
s 1
f 4/1/1 3/2/2 9/3/3 10/4/4
f 2/5/5 1/6/6 7/7/7 8/8/8
f 113/9/9 63/10/10 6/11/11
f 62/12/12 5/13/13 12/14/14
f 114/15/15 4/1/1 10/4/4 11/16/16
f 3/2/2 2/5/5 8/8/8 9/3/3
f 1/6/6 113/9/9 6/11/11 7/7/7
f 5/13/13 114/15/15 11/16/16 12/14/14
f 62/17/12 12/14/14 19/18/17
f 11/16/16 10/4/4 17/19/18 18/20/19
f 9/3/3 8/8/8 15/21/20 16/22/21
f 7/7/7 6/11/11 13/23/22 14/24/23
f 12/14/14 11/16/16 18/20/19 19/18/17
f 10/4/4 9/3/3 16/22/21 17/19/18
f 8/8/8 7/7/7 14/24/23 15/21/20
f 6/11/11 63/25/10 13/23/22
f 14/24/23 13/23/22 20/26/24 21/27/25
f 19/18/17 18/20/19 25/28/26 26/29/27
f 17/19/18 16/22/21 23/30/28 24/31/29
f 15/21/20 14/24/23 21/27/25 22/32/30
f 13/23/22 63/33/10 20/26/24
f 62/34/12 19/18/17 26/29/27
f 18/20/19 17/19/18 24/31/29 25/28/26
f 16/22/21 15/21/20 22/32/30 23/30/28
f 26/29/27 25/28/26 32/35/31 33/36/32
f 24/31/29 23/30/28 30/37/33 31/38/34
f 22/32/30 21/27/25 28/39/35 29/40/36
f 20/26/24 63/41/10 27/42/37
f 62/43/12 26/29/27 33/36/32
f 25/28/26 24/31/29 31/38/34 32/35/31
f 23/30/28 22/32/30 29/40/36 30/37/33
f 21/27/25 20/26/24 27/42/37 28/39/35
f 27/44/37 63/45/10 34/46/38
f 62/47/12 33/48/32 40/49/39
f 32/50/31 31/51/34 38/52/40 39/53/41
f 30/54/33 29/55/36 36/56/42 37/57/43
f 28/58/35 27/44/37 34/46/38 35/59/44
f 33/48/32 32/50/31 39/53/41 40/49/39
f 31/51/34 30/54/33 37/57/43 38/52/40
f 29/55/36 28/58/35 35/59/44 36/56/42
f 39/53/41 38/52/40 45/60/45 46/61/46
f 37/57/43 36/56/42 43/62/47 44/63/48
f 35/59/44 34/46/38 41/64/49 42/65/50
f 40/49/39 39/53/41 46/61/46 47/66/51
f 38/52/40 37/57/43 44/63/48 45/60/45
f 36/56/42 35/59/44 42/65/50 43/62/47
f 34/46/38 63/67/10 41/64/49
f 62/68/12 40/49/39 47/66/51
f 47/66/51 46/61/46 53/69/52 54/70/53
f 45/60/45 44/63/48 51/71/54 52/72/55
f 43/62/47 42/65/50 49/73/56 50/74/57
f 41/64/49 63/75/10 48/76/58
f 62/77/12 47/66/51 54/70/53
f 46/61/46 45/60/45 52/72/55 53/69/52
f 44/63/48 43/62/47 50/74/57 51/71/54
f 42/65/50 41/64/49 48/76/58 49/73/56
f 52/72/55 51/71/54 58/78/59 59/79/60
f 50/74/57 49/73/56 56/80/61 57/81/62
f 48/76/58 63/82/10 55/83/63
f 62/84/12 54/70/53 61/85/64
f 53/69/52 52/72/55 59/79/60 60/86/65
f 51/71/54 50/74/57 57/81/62 58/78/59
f 49/73/56 48/76/58 55/83/63 56/80/61
f 54/70/53 53/69/52 60/86/65 61/85/64
f 62/87/12 61/85/64 70/88/66
f 60/86/65 59/79/60 68/89/67 69/90/68
f 58/78/59 57/81/62 66/91/69 67/92/70
f 56/80/61 55/83/63 64/93/71 65/94/72
f 61/85/64 60/86/65 69/90/68 70/88/66
f 59/79/60 58/78/59 67/92/70 68/89/67
f 57/81/62 56/80/61 65/94/72 66/91/69
f 55/83/63 63/95/10 64/93/71
f 67/92/70 66/91/69 73/96/73 74/97/74
f 65/94/72 64/93/71 71/98/75 72/99/76
f 70/88/66 69/90/68 76/100/77 77/101/78
f 68/89/67 67/92/70 74/97/74 75/102/79
f 66/91/69 65/94/72 72/99/76 73/96/73
f 64/93/71 63/103/10 71/98/75
f 62/104/12 70/88/66 77/101/78
f 69/90/68 68/89/67 75/102/79 76/100/77
f 77/101/78 76/100/77 83/105/80 84/106/81
f 75/102/79 74/97/74 81/107/82 82/108/83
f 73/96/73 72/99/76 79/109/84 80/110/85
f 71/98/75 63/111/10 78/112/86
f 62/113/12 77/101/78 84/106/81
f 76/100/77 75/102/79 82/108/83 83/105/80
f 74/97/74 73/96/73 80/110/85 81/107/82
f 72/99/76 71/98/75 78/112/86 79/109/84
f 80/110/85 79/109/84 86/114/87 87/115/88
f 78/112/86 63/116/10 85/117/89
f 62/118/12 84/106/81 91/119/90
f 83/105/80 82/108/83 89/120/91 90/121/92
f 81/107/82 80/110/85 87/115/88 88/122/93
f 79/109/84 78/112/86 85/117/89 86/114/87
f 84/106/81 83/105/80 90/121/92 91/119/90
f 82/108/83 81/107/82 88/122/93 89/120/91
f 62/123/12 91/119/90 98/124/94
f 90/121/92 89/120/91 96/125/95 97/126/96
f 88/122/93 87/115/88 94/127/97 95/128/98
f 86/114/87 85/117/89 92/129/99 93/130/100
f 91/119/90 90/121/92 97/126/96 98/124/94
f 89/120/91 88/122/93 95/128/98 96/125/95
f 87/115/88 86/114/87 93/130/100 94/127/97
f 85/117/89 63/131/10 92/129/99
f 93/130/100 92/129/99 99/132/101 100/133/102
f 98/124/94 97/126/96 104/134/103 105/135/104
f 96/125/95 95/128/98 102/136/105 103/137/106
f 94/127/97 93/130/100 100/133/102 101/138/107
f 92/129/99 63/139/10 99/132/101
f 62/140/12 98/124/94 105/135/104
f 97/126/96 96/125/95 103/137/106 104/134/103
f 95/128/98 94/127/97 101/138/107 102/136/105
f 105/135/104 104/134/103 111/141/108 112/142/109
f 103/137/106 102/136/105 109/143/110 110/144/111
f 101/138/107 100/133/102 107/145/112 108/146/113
f 99/132/101 63/147/10 106/148/114
f 62/149/12 105/135/104 112/142/109
f 104/134/103 103/137/106 110/144/111 111/141/108
f 102/136/105 101/138/107 108/146/113 109/143/110
f 100/133/102 99/132/101 106/148/114 107/145/112
f 106/148/114 63/150/10 113/9/9
f 62/151/12 112/142/109 5/13/13
f 111/141/108 110/144/111 4/1/1 114/15/15
f 109/143/110 108/146/113 2/5/5 3/2/2
f 107/145/112 106/148/114 113/9/9 1/6/6
f 112/142/109 111/141/108 114/15/15 5/13/13
f 110/144/111 109/143/110 3/2/2 4/1/1
f 108/146/113 107/145/112 1/6/6 2/5/5
